<svg width="24" height="21" viewBox="0 0 24 21" fill="black" xmlns="http://www.w3.org/2000/svg">
<g clip-path="url(#clip0_172_6)">
<path d="M7.93945 15.8301H19.3359C19.7168 15.8301 20.0488 15.5176 20.0488 15.0977C20.0488 14.6777 19.7168 14.3652 19.3359 14.3652H8.10547C7.54883 14.3652 7.20703 13.9746 7.11914 13.3789L5.51758 2.50977C5.41992 1.75781 5.14648 1.37695 4.15039 1.37695H0.722656C0.332031 1.37695 0 1.71875 0 2.10938C0 2.50977 0.332031 2.85156 0.722656 2.85156H4.02344L5.58594 13.5742C5.79102 14.9609 6.52344 15.8301 7.93945 15.8301ZM6.14258 12.3535H19.3555C20.7812 12.3535 21.5137 11.4746 21.7188 10.0781L22.5 4.91211C22.5195 4.78516 22.5391 4.62891 22.5391 4.54102C22.5391 4.07227 22.1875 3.75 21.6504 3.75H5.29297L5.30273 5.22461H20.8789L20.1855 9.90234C20.1074 10.5078 19.7852 10.8887 19.209 10.8887H6.12305L6.14258 12.3535ZM8.71094 20.5762C9.58984 20.5762 10.293 19.8828 10.293 18.9941C10.293 18.1152 9.58984 17.4121 8.71094 17.4121C7.82227 17.4121 7.11914 18.1152 7.11914 18.9941C7.11914 19.8828 7.82227 20.5762 8.71094 20.5762ZM17.8418 20.5762C18.7305 20.5762 19.4336 19.8828 19.4336 18.9941C19.4336 18.1152 18.7305 17.4121 17.8418 17.4121C16.9629 17.4121 16.25 18.1152 16.25 18.9941C16.25 19.8828 16.9629 20.5762 17.8418 20.5762Z" fill="black" fill-opacity="0.85"/>
</g>
<defs>
<clipPath id="clip0_172_6">
<rect width="23.3984" height="20.5762" fill="black"/>
</clipPath>
</defs>
</svg>
